<mxfile host="app.diagrams.net" modified="2022-06-22T03:42:53.767Z" agent="5.0 (X11; Linux x86_64) AppleWebKit/537.36 (KHTML, like Gecko) Chrome/102.0.0.0 Safari/537.36" etag="6vPJ2eJU0EzmunqstMke" version="20.0.1" type="github">
  <diagram id="h7XrzYjkoOmaFEVYIDqI" name="第 1 页">
    <mxGraphModel dx="1350" dy="773" grid="1" gridSize="10" guides="1" tooltips="1" connect="1" arrows="1" fold="1" page="1" pageScale="1" pageWidth="850" pageHeight="1100" math="0" shadow="0">
      <root>
        <mxCell id="0" />
        <mxCell id="1" parent="0" />
        <mxCell id="41CrVD6sT8wKPJLQweTM-1" value="" style="rounded=0;whiteSpace=wrap;html=1;fillColor=none;fontSize=12;" vertex="1" parent="1">
          <mxGeometry x="40" y="40" width="760" height="490" as="geometry" />
        </mxCell>
        <mxCell id="41CrVD6sT8wKPJLQweTM-2" value="" style="shape=image;verticalLabelPosition=bottom;labelBackgroundColor=default;verticalAlign=top;aspect=fixed;imageAspect=0;image=data:image/webp,UklGRmQbAABXRUJQVlA4TFgbAAAv/8F/EP/nuG0jSWKf/8k/xg1ht4+qATYERm0jSXL2+i9/jEthi1HbSJLc53/5Y1wIuw05sm1VFRvnCj5jSP65EAABuHP2A74shW3bNt27zBtoQZGf90mloBSglgKUUgAQeGGNXAoADBCIUoAERYsRlF5CXjvBAAZoAHCqEJIRcmgwDC4Gr3MBMYL+4CSG6HruLCQpRHMDMFgOAGAgAADwBgDgA0DceynQAEMI0npChSAxswQWAAwklpMRhGQEIUFGyCgopfgFyJghmwWEBGElixvfjf8VvfwUsUXgCgNzBrC5IpwEg7rcIAAMlwIYy1JEPRI07SzGPcxn+Xxv73t+q+VkZMo6byes/9q/638J8AYAtKul0batq1FskGLBrqTalfSMwRBTJtZUEeyK0q7rWgIRCxpsxO4YNNUhkoyNYDeYZord2EGqDpYh2AlyAXb9AcJ1zl57n8VdI/o/AWCcrfUe7pxe/HXP04vmJ50MGXkoJiYmJh8RMSomJibm8KiQxKS5C5e9lFr86+bvvG1Qd1zq67+j595Zk486Ud+Zk95d3OtfHbc1q7sxXWpX/HL/qQUofO7k+Z/v7NTcUqfi3bkoOTgSiY2aVJiS/n15nYe1RVpQcAESHjWpT9GWkjoK08U1y4ZEoRSjp7x27mFL3UJlp3++Mx4lGzGz5y8edQM+nVOS8lDS9knJ6Vd4r6LN7gN2lLzzxNnNZUx34+kBBaiIuUlf+3KbZUvgRFTMI33SfdjMo3thOCpp9rzHrjDY1bQ5eaiw9uCi26xVGjDLjsrrCC5qxFQu/8J8VGRHcFEpO5k77Y1Epc7t19HKSXdSD6GCH0/+jonK0t51oqp/+JQn/9QPzEKlz+2TwToW/yQnqn9IcQnXXH5uDBrErJduccz1oGw0kI45nZnF9MtsNJyJv1r4xOwfgob0UFEZj5SnjUTDejTlLn94fXUMDW347lLe8Ck6goa3IKgRX3ilHkdDXBBUjydKio6iYS4IvMcPtuIxaKiPp5bxgvnJUWi4YwNsjPDQSTTkI9K54FohGvaZGRxwpXcUGnjHG7eNnjktEw1+dorL0LWahgw4qr1xq9fHiTyYdNGYmVdFIBvmPmczYA1mIismtDZattQ8ZEZHso+hyghFhjy8yTiVBNqRJwsvG6SN8ciWx4uNUOleZM0BtwxPuzhkznFPGBtbigP5s4+Xgbk4BFn08BbDklaATBodaDMkl+cio37Y0IB0CkNWDS82Gq7eTuTWxR6G4s40ZNhRjQ1Em6PIsjlrjYIp1Y5cm2wzBF79kHHfb2QArk9C1o19UPk6jkPmjU5VO0ugE/l3X4nC3Z2FLBx6S9maT0QmDtumaK2OIBtHtleyrtnIyPYdClbkQF4OMiuW5RVk535lSlU5Dxk6sZlCNRqMLH3wujLdiEemzmytSBfCkK0LOivR91nI2HkdFOiHcGTt/HXK0zYSmdu+RnHa5yJ7O39XmkejkMGdzypMj2jk8UBl+d2JXP6ySU1WIaN/oiRrHZyGLyrI+mjk9a+Vo2MUMrvzKcXonIvs7nxMKR6MRIa3/6oQ38Ugy+f/ogyNs5Dpc9oqwrUjyPYRrZXgyihk/KxrClA2HVn/YDPpmfsj8w9yye5TZP9Cs9yKsQ6wp9S2R9cF4A6JbYvEOkG7v7Rux2EdYYSvpDynYp3hmDtSMg/EOsQQl4y+xDrFvRLyd9QtYIB06o/HOsaoLZKpnIJ1jmH15PIm1kEG22TyDNZJfi6RB6LqJvARadQLwzrKgpaSqJiOdZYjPOXQC+sw90rhB3tdBj4hgbsfIJnjEga8vizwlb/3D46zGzNn2Ifz9p7ulfyPOUOz6BjnR18hktnLDDW0+vk/VzjSSMXN+3LdtXKo6Q4ycJCFujVIprMB1L7puldOOAzQ8CVpflB7r2wy8HnimoTTcRLcfCWtMMLI2INTr4ObF9ER/RBp1kSkc6e7AKCs/evhxiS33yMe4P7tdOAoL8r+iXTml2oAAC7/wijDEVJ0BTS1jqUDXyNsq52Q/aB5s98TjET8C81B8z2EYDpZnoeQ0PXaAcBPfaONgXN2Vwvo8DwlMbeoWoaE5vnoAqBeaqz6RSY3Bn2a4gjBgUT94KBkIOi2fM0wtRvzrAfodikl+CRJ5ROR0h36ATD7H1C3+KIy0HF7UjIvU/QFkuqnJwDofFLNRhfbQNdl2ZTg3wl6OIqUBNB92xnqlZBuBr3PIQU3k2OZhqT21B/AxhNqFZ9mBv0H0HKokppnkNYuIoApfbQ6HU91gYj1acHPibkUSUu0jxAAtuIjapQdeA8EDaPF8SAt7yCtB0BYzy+z1cf+sTcI248WPGGjZC0S+6k4ALf7qM7gViDw08TgfwgpzaJmvUgAm4fTkB8Tc+TgwYMhISEhow4eHBMTk0vDkbUmEPkmNblN6DiN1DYVCypSI4XIHzP1o317njuXvmmrb5OrFeBG693mjR/slP7bik/7DAyNyxUi+hMPENsaSQzOIyPDTs0HIPzthTqyxwUv6rXS37cUdO/ZYnvAF33eOxSloxktQfhgavBnIkzBSO0A8QDaTNRB2IzkXR2v20B4S5ONRWeS4p3ahT0KBC4jZ0QFDd8iub0ogPIvojQY/27Qbze9gNgy3x5nk45p4Hz9LlC4ihxcQYJXGD3fkgDgG+qWsD9e7OAHhHtvXLHgsFsObwYaf6Qn8jYFXyC9vkSAtaigZtGTktNagBQb+afMGV8zZ7IXEHnPSQ6+TsCtbHrs5VQAXB90n8iBux5wgVStGSv7Z91n2FagM44ex3fi9UF6JwChpuIIjA4J7FwOcm5SXDgeo4NKgND36cGZwm1zEDSIEoBLnUpA6tYHfIHUvQRhe9FmIsH7aDGauymaaBVrO1K8mzN2UoSPC2UaQlIAZ2wnaUyZSI8iyR05I4MkfFYg63CafuQMP5oyPcUJQJof5ox7NGGKMK5Yoi5xhtlBU8QVUVYi0Z6cAeNpwp6ClMdRZWaND4iKKBVjBxLtANY8TBR+IYQtnqoo3hhNVeQVEZ5CqvN4YyRV+KUAltFk5fDGcLLCPfSXjmTn8hw+rb9EutDCGnF0xdn09gMS7sUax+nCJ/U2n7JGrJFLWIjO6jsoa8AZFidh2EZfy5DyVpzRDCmfo6urBaT5c0Zj0pwX9PQikv44Z3QiDZfoqHwsbc9xRg/a8hrp5xzSvpQzvqINl+tnMnGzOWMJcZkuvfyExB/mjBnEYQ+9LKTOXs4YE6g7qZPLedThw3zh6aQOM/TxHyT/W77YguSf0YX5MH2f88VK+iI89bAR6Z/FF/+gDx/XQ6EECqxsMVECJ3VwNU8CuI0r7jkkgDe0W4kyLOKKX1CGgdoNkcJArugthbFWrXxRirklTDFaCviLVp/LAX/hiRsox4UameMkcYYnnpFEto82bVGSE0wsMUsS+K02S2SBP3CEt10WAzWpOC6NJRzxDcoyuqkWXVGa48oZYqg0cJUWi+SxFBgyQB7vaVAeLo05Fo6Az6XhqOe+9ijLA5XAkqZ9ssAA970ui/jLwJSuRFl85DZrpiRyvge2bBQriegr7uqCknwCGPOBfDngancFSeIssGaxJP5w12g5TLPxBuyVQ4HLPS1QiuP9gDl9hksBN7pnhRy6AXt+nyeF3u4ZJIVlwKDPSuGwW0rtMjjkwyHmYBlgS3c8ihJ0dgIWbRIpg2fd8ZoMXgUm/VMGb7tjggTifLjEnCiBbFftrqME1wGbbrPTh11qt1ICHwGjnpFAYO3m0Zd/nVPuHqUvtFaW8fS9DKwaQJ/jam0ykPzxV3nFMok89K/Nn/TtAmbtRt/Z2uwnL7aMWyCYvAO1MGWSVwzs2o68aK+atUDq48r5BYKpw001CyCvCBi2PXlf1OwN6jIrOQZCqEuq2STqngeWfZK6cHNN7jmIy2/KM7ZY4rBlTTYj8X2AaVOoe7wmL1LXimvq5RO3pCZziAsBtl1A3NSajCFuJd9sJy7adb9mSHv+Fb6xjqUNb95vI3H7gXE/I+7c/VYQ15VzfIk7fb9C2iJdnAPDaUu830jaCoF1e9GWba7OZaftSd55kDZsWF0Gkh51j3fMYbT5V9edtiRg3iW0rahuN20ruOdR2t6sbj5tN7mnmZO0kOpGkBZj4R44QVq2uYotmrT9wL6fkoZ/VbmGpD/DP+tpa1flZ9q28M8d2s5V+Rdp9kr+gTGkBVbZQ9pQYOA/SOtX5d+kLeGg50ibWmUiaX9yUAfSIqtEkraZg66ThlcBriLptzjImkeaL4AvaeEmDoLJpLUHaE/aYGDhfqTtANhJWj8e+pS0lwB2k7aHh54mbR/AG6Q9w0PrSZsFMJC0dTzUirQpAINJ28pDt0k7BhBL2g0eKiPNYTXlk9aMhyCXMmx0F0mvYKIw0nyvkRYJTDyZtM6tSIvlopOkrdtE2iEumkHa44+QNpyL3iHtmwDSpnDRv0n7IpW0IVy0n7RXe5I2jYtOkbb4FdJCuKg/afOXkDaVi+aS9s5i0iZy0VukDdpP2igumk1ayNukxXPRe6RNfJ+0WC6aTlr8NNKOctEB0o4MIS2Gi06QlnWCtAIumkTauMmkOa1MFEta5DDS8CoTRZKWM5K25jxkdZIWdZC2DB66i6Q7RtPWhoea02YfRlsHHsqgLTeBtrU81Ia28FDafuehDrRlJdK2nId+o23sINr+wUMv0jZhFm0DeWgpbaPfpm0qD82lbdgc2jJ5KJS2qftpc7pY6AhtIQtpQz8Osjpom55M3FYOuoO0v9WLuCc56AHiFvyHuL9x0Grilq4ibjEHvURcYHfiBnNQf+K+ak9chImBphC3YwtxWI9/zLnEPdGYup/4pzkSv/0OdcX8s5m6LZ7Uvco/u6hrDDnEJfLPAuqawUHicm3sM4q4KDMMIg4bc4+Hk7gJAIXUreGedkh8IsAe6npzzzfU9QdIpW469yygrjdAD+pyypnnEHXPAXShDn/knb+Q+jUAF8n7G++sIW8zgAd57/LOm+S1BIBw6vLKWGcCefcAIJQ6bMc5DZH6TACAU+Qt55zHyUus8gV5BzjnFHl7q6whz3mLb8rDyftbla3k4Q6+2Y7kP1GlKX3v8E0yfa2qwDjyou5xjTmMvqvVhJKHT3LNg0h+FlS7gL5TXBNI37TqltOX48Ez5gn07a0unT48xzOdkf5d1V2TQDDP7JVAp+rMkfThDY7xiZRA0+rgQwl8wTGPIf1hcN9kCXxgYZj3JfD2/XZIALvxS0unBALvt1UG7/HLGyjBJ+/n5ZQAnueWZrkyuHA/OCiDvdyyHCWYZ61Bfxnke/OK66gMBkMNv5EB9uSVcyjD3jXZIoXIZpxiOyiFJ2tSnicD7MUpO1GKl2oCiVLI8eYTV5wUxkCNP5UC7uGTp1GKfWuWLoe8O1xSeUQOz9TsthywD5ekoBwfqBnEy8H5I4/8lS2HvPJaLJQDJlhZZB7K8STUcqUkcAeH/IySfLk2F2URc5k/KobLYlNtIE4S2Ic/UlCSeSW1ekMWuJ47MqJkMQtq3V0ax5ryRnkCyvKr2jV1ygLn88ZZlObN2kGCNLA7Zzxgl0aMxQ2fyWNcfb4oPYzS7Atu/FkemFDJFeaBKM9id5TkyQMXccVylGgTd0CSRHAnT/zikMhIcOtKmeRv5Yj6MSjRs+657ZQIZl3nhysjUKZb3QMhMsFDTbmhbDrK9KjFTS9IBQdX8oLlD5TqEnBzY7ngXBsnmJahXP3dBSPlgv1sjBCIcs0ucdtnksG+VjYIRMn2B7f/KBvsa2WCQJRtmvssx2SDC20cYNqDso0udR8slQ7O8jR+FYtRum+Bhj/IBxNuGz2ft1C+PbQwHZYPHr5u7OoNQflm+2gBL0kIs7oYue8noIQXgqYXZIT2VJNh65GNMm6vDSTICHG+pzErD0IpH6/QKFVOmHDRiPklopxPg8Z3HHLC3CKT4UqPQUlv1QrelxTiO97GymMfyjrepNnj0sKjHYzUpjiU9nLQ3CdcWohz7hilpn1Q3o5L2sEyiWF4kcUImdKyUOIDQIcZMkNMPG98vg9GqXfVAwyWGjoL/YzN7WQ7Sj3MpotzckPMCfQ0LpWpkSj55aBLn3DJIR59tsSY+KQeQ9k7LukDlkkPMTPF03j4FI1F+Q8AnWYoAOKR1LvGomnKcVTBrnqBaaLEfjigsDB4jJMGxMhXGhqHh1/LQyWMtermSQEcs4u23IXqy69t2DPETgCiY39bkxGwdkhCVUwF3Vo/0N3c61Brjw6LssVDxJFfN1O9Bj3DUBkj7+oHdumttwnc6tPjHad4iPl9t9vUzTNtphMVsjfo+F6EviLKwe2N90aLh4iZZ7aYVMy1oW8OKqW9gZ5gj75OgJZ+S+0EIGL82a1mtfJat3ccquZ+0HVzu65yyrUAeHgmCYh4dEl7lyrd2flWHiroFn1BP13hb9oArB9DAyJmv/V0C+Xx+SVoIqrpAdD5A/o6elcjuHqKiqqxb6xpoixem5e/l4/K+qjeYLquMKlCI4AnxtFRNXbxTl+rajR/5JPB0aiy8Vbd/aIv3GfSCq5NJKVqwfufr2toVgJTk44pA46h8u4E/R/QF/Z1aQU+/aipNn9Sn1T/JhK7u6UoOTgSlTjMJUBHneGMe1qB6XOKqj82e8/jbf4yS+VexoZnlw6KQYVeCQKahugMJ93QCuAbJ1XV5494+/Su9RkexDX7ecfZfqExqNxhLhGgm96w4DfNYLWDtPueuErb3Wmo5n+CkKYTekPsd1crWOOgL7QUiPeYrmRHSsSAdfrD+Ee0gnNO6j70APK9BqnYLhDUPEV/iG/5aQQriDvcDCToM0S9jlWKAr+KgOHrNIIzpEU0BinejlWur0FY02AREF+p0MbyDmGOX0CSrfMVK65MHGgnBk4v1QSuxNP1KUjzT8VaDSIPFAMn3tEEbuZRNcklD9NApZpiEaqxQwwMa6wJnCMq+jxI1DtGpbaD2G8KglmtNIEFNO0GqT6uUO+C4LdzBMHwm5qUjqXoqKdczNOUyfmgaHBWFMy8oAV0pegcSLa1U5VOgfB3Y0TB2NtawH56EiyygUJFimogHjwtDA7x0eKvAnLag3Qv2NXoEyDQNlkYnGPWAHZRM8kkH1isREc8KIAfnMLgci2sQ4l5DCTc2KlCa4DGBeI4ftYAHrKTcsQlI5ilQNNNRNyKFAazLmkAu0l5AaTcUX3s3wOVX4mDwRYNrNMIcdySk3WM8iwDMitGiIPfaAAXs+l4FyQdqDpZpXTARoHyHtYAetDxlKwuqs5TQOl+cXCoVQPoTUVUqaxgstqEWEi5PU4cfFYL2yAiBoC0lytN9DagNUCgyDsaQOlwGnbI6zuleQmINSWJg/u1gOZjSbgmL1OYwowoowYa5IiDm7SAjBgC4kDi+9TF8SPQ+41ACRYt4Lss8d6U2Wp1OQMEWweLg6s1gW3HhUuTWRNl+cCTIvCNEieuTBO4eFg0P5nBUVX5BWj+UhxcoQ00ChVrnElqcxRlMRBdfkKcY5XaQOVioQaB1F9Qk9hSquBCjjD4jEYAxfkCvSq3bkri/BnoLhJnbJlW0DhUnAC5XVeST4Bw09vC4A7NoOLLfFG2ys2aryCTXZSBd6Ywhy2aAVwfKETmS2Vyg0nqkecLtG8QBjvoAGDjNL05g9e6QPZvqcc3QP1rwiTpAmD7e3qK/7I+KGCycsw0k+c1WhTnRX0A+H48Th/Det40gRI+rxrj/wL6z+cJgq/qBcC1ru84jWL677wGyrhaMZzrQYYrRYnw0g0AWNv8MynCPfkhyQHbLKCSHRTjU5DjQkFwtZ6qmv5qF3D2j8TQg7ExMbEjQ2b0+3zVLxdsoJw/qsV0myS8hgnyrt5UubFSZN4CWbbMFgN9DckdlXBsAnk+KcibhuSySqSATD8WI6qJEfFQiCSzVFxDhcB9RqRMHeIug1wvHRXC8Z0BsShDbmuQ7Q/5IuBsk/EAVXA+AfJdIwT2YKvdIOMgITKvMNVAi5SsH4mAr/NUghfI+e4IEbA7R2U1BFlfHy9C5HV+imoL8t4UJQCGlLPTYyDzNU4BMJmbUkDuz4uAz/HSEpD9KyI4f+Okf1ulZ+kvANo78NGBSpB/2UkBMHILF428DCpYOkwAzO7EQ8fqgxr6hQmAOV05KOImqOL1IwKgM4V/ctqCOmbECIB4poJ58jaBSraOEAFD/FjHng5q+UO2CHisA+PYHwHV7JwrAmLhXa5xngP1bJ8vBH6wgWecO0FF10cLgTiwPsc8C2rqnycGRiV7c4vzaVDV9rliIGafvc0qjqdAXX+KFAQxqvA8n9hXg8puCRcFEUOKvXjE3gPUtnWMOIgFfbqV8EdeR1DdjGMCIWLOvHP19WS50P0zo5WzCdS3RZhQVccs2vmQj3b1fio+nZiNiAYrvA2osN8w0ao6RvXtGbDxQlntKm617hjw5YLQCLy/yVCFZYAal54k4P65YydOT5pXWFhY+EfStISDWehGQzW8Oahy+Sk69Gikpl0Gdbac4ai5JaDURU5pmA3T61ZQ7LQoZgoE9d48XhIWY5S3FlS8wUQ+yvwJ1NxrjhSsRmjqJVB1SyAP9a0Ehe+eS5/N8DgDzaD0DxzhntzuoPqXQqmrMDiHM0D9y4M4599XwRB2L+Aae4oZDOKNKZSVG5hjncE4+izimPfqgaFMyyHLZVScQTYwmDdHUVVmUI7+AsazLIgolzF5xxsM6caxJJUZkZwiExjUZnN4JKExGFdTcQE9JYbDGVQBhvZGKHdM+AmMbkVKPjGVxsK51BMMcMsP+eJgFzDGlmeyKfExENEvl4Fhbp5ESIlxSGgFhjo9ixuiAivAYHv35YX3LoABbzuFBpchCEszgSG3FYVTUG4AooI8wbDX6+NkgJktwNCfPyBcherFpoHRt6zKNHLZy0uAAX1SI4SyqpyjjzcwoXdytCFLehgY8UahOBZlm/YTMOND74tiVrQR6SZgR9OGE8bpcLENeLLzARFMChZfVA582Xma/kC5DhdbgTe3Jxqb4d9agT83v6ercPlF6CrhCQvwaEafKP2Mkt8hHQX7m4BP/zo7Ti8z5TdIL3mvtQRm9Skero8U+fXUx7ig28CwlnXBemgrv856mBRQBlx7IzBLq1EW+VlGapVX2NkEnFuenuTUZC0o4DltRqReAf5t+cp49w22qUDFVPfl7vsRmLgsbbbDPWMbghJez3RTyJ+lwMnez4S6YfQFUETfeDccXH4D+PnilwdrFvXqPVDG0o/tNct89QET8LTpwd6jo6vJS3z+Niil3/LB0dU4Di/+xQasbbu07cHv/SygoLbrNzufr18O/+///3sl;fontSize=12;" vertex="1" parent="1">
          <mxGeometry x="590" y="50" width="32" height="32" as="geometry" />
        </mxCell>
        <mxCell id="41CrVD6sT8wKPJLQweTM-3" value="" style="rounded=1;whiteSpace=wrap;html=1;fillColor=none;fontSize=12;" vertex="1" parent="1">
          <mxGeometry x="50" y="53" width="510" height="180" as="geometry" />
        </mxCell>
        <mxCell id="41CrVD6sT8wKPJLQweTM-4" value="" style="rounded=1;whiteSpace=wrap;html=1;fillColor=none;fontSize=12;" vertex="1" parent="1">
          <mxGeometry x="60" y="310" width="170" height="210" as="geometry" />
        </mxCell>
        <mxCell id="41CrVD6sT8wKPJLQweTM-6" value="" style="shape=offPageConnector;whiteSpace=wrap;html=1;fillColor=none;rotation=-90;fontSize=12;" vertex="1" parent="1">
          <mxGeometry x="89" y="60" width="150" height="180" as="geometry" />
        </mxCell>
        <mxCell id="41CrVD6sT8wKPJLQweTM-11" value="&lt;font style=&quot;font-size: 6px;&quot;&gt;Step_1: Infra CICD&lt;/font&gt;" style="rounded=0;whiteSpace=wrap;html=1;fillColor=none;fontSize=12;" vertex="1" parent="1">
          <mxGeometry x="79" y="86" width="110" height="20" as="geometry" />
        </mxCell>
        <mxCell id="41CrVD6sT8wKPJLQweTM-12" value="Job_CICD" style="rounded=0;whiteSpace=wrap;html=1;fillColor=none;opacity=0;shadow=1;fontSize=12;" vertex="1" parent="1">
          <mxGeometry x="73" y="53" width="110" height="20" as="geometry" />
        </mxCell>
        <mxCell id="41CrVD6sT8wKPJLQweTM-13" value="&lt;font style=&quot;font-size: 11px;&quot;&gt;Step_2: SCTS CICD&lt;/font&gt;" style="rounded=0;whiteSpace=wrap;html=1;fillColor=none;fontSize=12;" vertex="1" parent="1">
          <mxGeometry x="79" y="120" width="110" height="20" as="geometry" />
        </mxCell>
        <mxCell id="41CrVD6sT8wKPJLQweTM-14" value="Step_3: Promise CICD" style="rounded=0;whiteSpace=wrap;html=1;fillColor=none;fontSize=12;" vertex="1" parent="1">
          <mxGeometry x="79" y="154" width="110" height="20" as="geometry" />
        </mxCell>
        <mxCell id="41CrVD6sT8wKPJLQweTM-15" value="Step_new: New CICD" style="rounded=0;whiteSpace=wrap;html=1;fillColor=none;dashed=1;fontSize=12;" vertex="1" parent="1">
          <mxGeometry x="79" y="188" width="110" height="20" as="geometry" />
        </mxCell>
      </root>
    </mxGraphModel>
  </diagram>
</mxfile>
